<?xml version="1.0" encoding="UTF-8"?>
<!-- Generated by Pixelmator Pro 3.6.12 -->
<svg width="800" height="800" viewBox="0 0 800 800" xmlns="http://www.w3.org/2000/svg">
    <g id="layer1">
        <g id="g3320">
            <g id="g62272">
                <path id="path62274" fill="#05482f" stroke="none" d="M 773.400024 400.100006 C 773.400024 606.299988 606.200012 773.5 400 773.5 C 193.799988 773.5 26.600006 606.299988 26.600006 400.100006 C 26.600006 193.900024 193.799988 26.599976 400 26.599976 C 606.200012 26.599976 773.400024 193.799988 773.400024 400.100006"/>
            </g>
            <g id="g62276">
                <path id="path62278" fill="#ffffff" stroke="none" d="M 400 751.400024 C 206 751.400024 48.699997 594.100037 48.699997 400.100006 C 48.699997 206.099976 206 48.799988 400 48.799988 C 594 48.799988 751.299988 206.099976 751.299988 400.100006 L 751.299988 400.100006 C 751.200012 594.100037 594 751.299988 400 751.400024 M 400 40.599976 C 201.100006 40.599976 39.899994 201.799988 39.899994 400.700012 C 39.899994 599.600037 201.100006 760.799988 400 760.799988 C 598.900024 760.799988 760.099976 599.600037 760.099976 400.700012 L 760.099976 400.100006 C 759.900024 201.299988 598.799988 40.200012 400 40.099976"/>
            </g>
            <g id="g62280">
                <path id="path62282" fill="#ffffff" stroke="none" d="M 695.900024 400.900024 C 695.900024 564.405945 563.371277 696.800049 400 696.800049 C 236.628754 696.800049 104.100006 564.271301 104.100006 400.900024 C 104.100006 237.528687 236.494049 105 400 105 C 563.505981 105 695.900024 237.528687 695.900024 400.900024"/>
            </g>
            <g id="g62352">
                <path id="path62354" fill="#d35220" stroke="none" d="M 554.078125 399.82254 L 534.414246 399.82254 L 523.235535 356.993164 C 509.767151 350.797699 495.221375 347.565308 480.406189 347.295898 C 430.438477 347.295898 403.232422 392.684326 404.309875 452.079834 L 363.635437 373.828613 C 389.225281 333.019409 434.613708 309.18042 482.695801 311.06604 C 509.767151 311.200684 536.434509 317.396179 560.94696 328.844299 L 554.078125 399.82254 Z M 572.66449 175.708923 L 401.750854 311.604675 C 408.215698 288.573853 403.232422 263.926758 388.282532 245.205688 L 518.117554 142.442078 C 508.824402 138.266907 499.396545 134.495667 489.834045 131.263306 L 368.214661 228.639587 C 354.072876 221.770752 338.449524 218.807739 322.826294 219.885193 L 282.286438 219.885193 L 410.909363 117.660217 L 400.134644 117.660217 C 243.362915 117.660217 116.221527 244.801636 116.221527 401.573456 C 116.221527 462.989166 136.154724 522.788696 173.058044 571.948242 L 173.058044 495.582611 L 277.976654 412.078766 L 277.976654 255.441711 L 301.142151 255.441711 C 333.600952 255.441711 347.338745 275.374817 347.338745 291.671509 C 347.338745 314.567749 330.099121 332.07666 295.889557 337.329346 L 292.118439 352.41391 L 338.853577 440.497009 L 172.92334 572.352295 C 190.566925 595.652588 211.577576 615.989868 235.416565 632.959961 L 235.416565 556.190308 L 350.436401 464.874756 L 408.080994 464.874756 C 412.525574 501.912781 444.714966 529.25354 481.887634 527.637329 C 492.797058 527.906738 503.706421 526.559875 514.346436 523.731567 L 514.346436 475.110687 L 470.57428 462.450439 L 473.806641 440.362335 L 564.718079 440.362335 L 564.718079 547.570496 C 535.491699 558.883911 504.514465 565.079346 473.267944 565.887512 C 435.960571 567.638367 399.865356 551.745728 375.891602 523.058105 L 236.22467 632.959961 C 363.635437 724.410156 541.013794 695.183777 632.463928 567.773071 C 722.297974 442.517273 695.765259 268.50592 572.799133 175.574219"/>
            </g>
        </g>
    </g>
    <path id="Percorso" fill="none" stroke="none" d="M 0 0.099976 L 800 0.099976 L 800 800.100037 L 0 800.100037 Z"/>
</svg>
