<?xml version="1.0" encoding="UTF-8"?>
<svg id="Livello_2" data-name="Livello 2" xmlns="http://www.w3.org/2000/svg" xmlns:xlink="http://www.w3.org/1999/xlink" viewBox="0 0 1587.17 515.72">
  <defs>
    <style>
      .cls-1 {
        fill: #231f20;
      }

      .cls-2 {
        fill: url(#Sfumatura_senza_nome_7-10);
      }

      .cls-3 {
        fill: url(#Sfumatura_senza_nome_7-11);
      }

      .cls-4 {
        fill: url(#Sfumatura_senza_nome_7-12);
      }

      .cls-5 {
        fill: url(#Sfumatura_senza_nome_7-13);
      }

      .cls-6 {
        fill: url(#Sfumatura_senza_nome_7);
      }

      .cls-7 {
        fill: url(#Sfumatura_senza_nome_7-8);
      }

      .cls-8 {
        fill: url(#Sfumatura_senza_nome_7-7);
      }

      .cls-9 {
        fill: url(#Sfumatura_senza_nome_7-2);
      }

      .cls-10 {
        fill: url(#Sfumatura_senza_nome_7-9);
      }

      .cls-11 {
        fill: url(#Sfumatura_senza_nome_7-4);
      }

      .cls-12 {
        fill: url(#Sfumatura_senza_nome_7-3);
      }

      .cls-13 {
        fill: url(#Sfumatura_senza_nome_7-6);
      }

      .cls-14 {
        fill: url(#Sfumatura_senza_nome_7-5);
      }
    </style>
    <linearGradient id="Sfumatura_senza_nome_7" data-name="Sfumatura senza nome 7" x1="-54.27" y1="266.85" x2="1492.04" y2="51.92" gradientUnits="userSpaceOnUse">
      <stop offset="0" stop-color="#0087c9"/>
      <stop offset="1" stop-color="#21409a"/>
    </linearGradient>
    <linearGradient id="Sfumatura_senza_nome_7-2" data-name="Sfumatura senza nome 7" x1="-49.52" y1="301.07" x2="1496.8" y2="86.14" xlink:href="#Sfumatura_senza_nome_7"/>
    <linearGradient id="Sfumatura_senza_nome_7-3" data-name="Sfumatura senza nome 7" x1="-47.03" y1="318.94" x2="1499.28" y2="104.01" xlink:href="#Sfumatura_senza_nome_7"/>
    <linearGradient id="Sfumatura_senza_nome_7-4" data-name="Sfumatura senza nome 7" x1="-42.28" y1="353.16" x2="1504.04" y2="138.23" xlink:href="#Sfumatura_senza_nome_7"/>
    <linearGradient id="Sfumatura_senza_nome_7-5" data-name="Sfumatura senza nome 7" x1="-29.27" y1="446.76" x2="1517.05" y2="231.83" xlink:href="#Sfumatura_senza_nome_7"/>
    <linearGradient id="Sfumatura_senza_nome_7-6" data-name="Sfumatura senza nome 7" x1="-10.3" y1="583.19" x2="1536.01" y2="368.26" xlink:href="#Sfumatura_senza_nome_7"/>
    <linearGradient id="Sfumatura_senza_nome_7-7" data-name="Sfumatura senza nome 7" x1="-59.61" y1="228.43" x2="1486.7" y2="13.5" xlink:href="#Sfumatura_senza_nome_7"/>
    <linearGradient id="Sfumatura_senza_nome_7-8" data-name="Sfumatura senza nome 7" x1="-33.75" y1="414.51" x2="1512.57" y2="199.58" xlink:href="#Sfumatura_senza_nome_7"/>
    <linearGradient id="Sfumatura_senza_nome_7-9" data-name="Sfumatura senza nome 7" x1="-9.7" y1="587.55" x2="1536.62" y2="372.62" xlink:href="#Sfumatura_senza_nome_7"/>
    <linearGradient id="Sfumatura_senza_nome_7-10" data-name="Sfumatura senza nome 7" x1="-18.33" y1="525.45" x2="1527.99" y2="310.52" xlink:href="#Sfumatura_senza_nome_7"/>
    <linearGradient id="Sfumatura_senza_nome_7-11" data-name="Sfumatura senza nome 7" x1="-8.92" y1="593.1" x2="1537.39" y2="378.17" xlink:href="#Sfumatura_senza_nome_7"/>
    <linearGradient id="Sfumatura_senza_nome_7-12" data-name="Sfumatura senza nome 7" x1="-17.84" y1="529" x2="1528.48" y2="314.07" xlink:href="#Sfumatura_senza_nome_7"/>
    <linearGradient id="Sfumatura_senza_nome_7-13" data-name="Sfumatura senza nome 7" x1="-5.93" y1="614.63" x2="1540.38" y2="399.7" xlink:href="#Sfumatura_senza_nome_7"/>
  </defs>
  <g id="Layer_1" data-name="Layer 1">
    <g>
      <path class="cls-1" d="M1236.88,501.17l10.7-60.5h-20.6l1.7-9.5h53.1l-1.7,9.5h-20.6l-10.6,60.5h-12Z"/>
      <path class="cls-1" d="M1309.58,502.37c-6,0-11.23-1.37-15.7-4.1-4.47-2.73-7.88-6.47-10.25-11.2-2.37-4.73-3.42-10.17-3.15-16.3.27-5.8,1.5-11.17,3.7-16.1,2.2-4.93,5.18-9.25,8.95-12.95,3.77-3.7,8.1-6.58,13-8.65,4.9-2.07,10.12-3.1,15.65-3.1,6.07,0,11.33,1.35,15.8,4.05,4.47,2.7,7.88,6.43,10.25,11.2,2.37,4.77,3.38,10.22,3.05,16.35-.27,5.73-1.5,11.08-3.7,16.05-2.2,4.97-5.18,9.3-8.95,13-3.77,3.7-8.08,6.58-12.95,8.65-4.87,2.07-10.1,3.1-15.7,3.1ZM1311.18,491.57c3.73,0,7.2-.72,10.4-2.15,3.2-1.43,6.03-3.48,8.5-6.15,2.47-2.67,4.45-5.78,5.95-9.35,1.5-3.57,2.32-7.45,2.45-11.65.27-4.4-.3-8.2-1.7-11.4-1.4-3.2-3.52-5.68-6.35-7.45-2.83-1.77-6.25-2.65-10.25-2.65-3.67,0-7.12.73-10.35,2.2-3.23,1.47-6.1,3.52-8.6,6.15-2.5,2.63-4.48,5.72-5.95,9.25-1.47,3.53-2.27,7.4-2.4,11.6-.27,4.4.32,8.22,1.75,11.45,1.43,3.23,3.57,5.73,6.4,7.5,2.83,1.77,6.22,2.65,10.15,2.65Z"/>
      <path class="cls-1" d="M1382.48,502.37c-5.47,0-10.05-1.08-13.75-3.25s-6.3-5.33-7.8-9.5c-1.5-4.17-1.75-9.18-.75-15.05l7.7-43.4h12l-7.7,43.4c-.6,3.53-.55,6.57.15,9.1.7,2.53,2.07,4.45,4.1,5.75,2.03,1.3,4.75,1.95,8.15,1.95,3.2,0,6.05-.6,8.55-1.8s4.6-3.05,6.3-5.55,2.88-5.65,3.55-9.45l7.7-43.4h12l-7.7,43.4c-1.07,6.33-3.2,11.55-6.4,15.65-3.2,4.1-7.07,7.15-11.6,9.15-4.53,2-9.37,3-14.5,3Z"/>
      <path class="cls-1" d="M1423.78,501.17l12.3-70h24.9c5.07,0,9.2.87,12.4,2.6,3.2,1.73,5.52,4.03,6.95,6.9,1.43,2.87,2.08,6.03,1.95,9.5-.2,4.6-1.5,8.65-3.9,12.15-2.4,3.5-5.72,6.22-9.95,8.15-4.23,1.93-9.18,2.9-14.85,2.9h-12.9l-4.9,27.8h-12ZM1442.28,464.47h12.3c4.6,0,8.27-1.18,11-3.55,2.73-2.37,4.17-5.62,4.3-9.75.13-2.93-.68-5.33-2.45-7.2-1.77-1.87-4.72-2.8-8.85-2.8h-12.3l-4,23.3ZM1460.88,501.17l-9.2-30.9h12.5l9.9,30.9h-13.2Z"/>
    </g>
    <g>
      <path class="cls-1" d="M115.4,72.4c-6.27,0-11.52-1.27-15.75-3.8-4.23-2.53-7.4-6.05-9.5-10.55s-2.98-9.75-2.65-15.75c.2-6.07,1.37-11.67,3.5-16.8,2.13-5.13,5.02-9.62,8.65-13.45,3.63-3.83,7.85-6.8,12.65-8.9,4.8-2.1,10-3.15,15.6-3.15,8.33,0,14.8,2.05,19.4,6.15,4.6,4.1,6.93,9.88,7,17.35h-13.3c-.13-4-1.47-7.12-4-9.35-2.53-2.23-6.2-3.35-11-3.35-3.67,0-7.05.75-10.15,2.25-3.1,1.5-5.82,3.62-8.15,6.35-2.33,2.73-4.18,5.97-5.55,9.7-1.37,3.73-2.12,7.8-2.25,12.2-.27,4.27.25,7.92,1.55,10.95,1.3,3.03,3.3,5.35,6,6.95,2.7,1.6,5.95,2.4,9.75,2.4,4.8,0,8.82-1.05,12.05-3.15,3.23-2.1,5.62-5.02,7.15-8.75h13.3c-1.8,4.73-4.33,8.8-7.6,12.2-3.27,3.4-7.17,6-11.7,7.8-4.53,1.8-9.53,2.7-15,2.7Z"/>
      <path class="cls-1" d="M157.5,71.2L169.9,1.2h12l-12.4,70h-12ZM173.2,40.2l1.7-9.5h36.3l-1.7,9.5h-36.3ZM201.8,71.2L214.2,1.2h12l-12.4,70h-12Z"/>
      <path class="cls-1" d="M223.4,71.2L261.4,1.2h13.5l13.1,70h-12.6l-9.7-56.3-29.6,56.3h-12.7ZM236.7,54.7l4.8-9.3h36.3l1.5,9.3h-42.6Z"/>
      <path class="cls-1" d="M297.7,71.2L310,1.2h12l-10.7,60.6h31.3l-1.6,9.4h-43.3Z"/>
      <path class="cls-1" d="M352.7,71.2L365,1.2h12l-10.7,60.6h31.3l-1.6,9.4h-43.3Z"/>
      <path class="cls-1" d="M407.59,71.2L419.99,1.2h43.4l-1.7,9.6h-31.4l-3.6,20.3h28.4l-1.6,9.3h-28.4l-3.8,21.2h31.4l-1.7,9.6h-43.4Z"/>
      <path class="cls-1" d="M463.59,71.2L475.99,1.2h12l24.7,51,9-51h12l-12.4,70h-12l-24.6-51-9,51h-12.1Z"/>
      <path class="cls-1" d="M566.09,72.4c-5.93,0-10.98-1.33-15.15-4-4.17-2.67-7.28-6.33-9.35-11-2.07-4.67-2.97-9.97-2.7-15.9.27-6.07,1.47-11.63,3.6-16.7,2.13-5.07,5.05-9.45,8.75-13.15s8.02-6.57,12.95-8.6c4.93-2.03,10.33-3.05,16.2-3.05,8.2,0,14.7,1.95,19.5,5.85,4.8,3.9,7.37,9.32,7.7,16.25h-13.5c-.4-3.46-1.9-6.17-4.5-8.1-2.6-1.93-6.23-2.9-10.9-2.9-5.27,0-9.92,1.23-13.95,3.7-4.03,2.47-7.22,5.93-9.55,10.4-2.33,4.47-3.63,9.67-3.9,15.6-.2,4.33.37,8.07,1.7,11.2,1.33,3.13,3.37,5.55,6.1,7.25,2.73,1.7,6.03,2.55,9.9,2.55,4.4,0,8.2-.85,11.4-2.55s5.87-4.02,8-6.95c2.13-2.93,3.73-6.37,4.8-10.3h-18.1l1.6-9.1h30.2l-6.7,38.3h-11l.7-9.6c-1.93,2.27-4.05,4.22-6.35,5.85-2.3,1.63-4.87,2.87-7.7,3.7-2.83.83-6.08,1.25-9.75,1.25Z"/>
      <path class="cls-1" d="M612.99,71.2l12.4-70h43.4l-1.7,9.6h-31.4l-3.6,20.3h28.4l-1.6,9.3h-28.4l-3.8,21.2h31.4l-1.7,9.6h-43.4Z"/>
    </g>
    <g>
      <path class="cls-1" d="M1034.31,245.07c7.08-4.06,13.17-11.38,19.61-19.14,9.36-11.27,19.65-23.67,35.44-29.21-8.66-4.61-18.53-7.22-29.02-7.22-30.43,0-55.73,21.97-60.89,50.92,2.19,1.59,5.24,3.56,8.86,5.15,9.43,4.15,18.17,3.99,25.99-.49Z"/>
      <path class="cls-1" d="M1049.08,312.17c3.65.67,7.41,1.03,11.26,1.03,22.63,0,42.42-12.16,53.2-30.3-12.45,10.36-27.09,15.63-44.94,19.82-5.97,1.4-14.07,4.17-19.53,9.45Z"/>
      <path class="cls-1" d="M1098.23,202.46c-17.41,3.36-27.99,16.11-38.27,28.49-6.91,8.32-13.43,16.18-21.75,20.94-5.25,3.01-10.91,4.51-16.79,4.51-5.36,0-10.91-1.25-16.51-3.75-2.36-1.06-4.51-2.23-6.38-3.39-.02.7-.04,1.39-.04,2.1,0,27.26,17.63,50.39,42.11,58.63,3.8-5.06,11.35-11.41,26.22-14.9,13.93-3.27,23.36-6.63,31.53-11.24,8.99-5.07,16.25-11.63,22.69-20.54.76-3.87,1.16-7.87,1.16-11.96,0-19.88-9.38-37.57-23.96-48.89Z"/>
    </g>
    <g>
      <path class="cls-6" d="M97.35,296.07h42.94c31.34,0,57.52-8.14,78.54-24.43,21.02-16.29,35.5-39.24,43.43-68.85,7.93-29.61,5.75-52.56-6.54-68.85-12.29-16.29-34.11-24.43-65.45-24.43h-115.49L0,388.61h72.55l24.8-92.54ZM131.67,168h24.06c26.65,0,36.87,11.6,30.65,34.79-6.22,23.2-22.65,34.79-49.3,34.79h-24.06l18.65-69.59Z"/>
      <polygon class="cls-9" points="323.52 388.61 398.3 109.51 325.75 109.51 250.97 388.61 323.52 388.61"/>
      <path class="cls-12" d="M454.55,388.61l24.8-92.54h42.94c31.34,0,57.52-8.14,78.54-24.43,21.02-16.29,35.5-39.24,43.43-68.85,7.93-29.61,5.75-52.56-6.54-68.85-12.29-16.29-34.11-24.43-65.45-24.43h-115.49l-74.79,279.1h72.55ZM513.67,168h24.06c26.65,0,36.87,11.6,30.65,34.79-6.22,23.2-22.65,34.79-49.3,34.79h-24.06l18.65-69.59Z"/>
      <path class="cls-11" d="M705.52,388.61l24.8-92.54h42.94c31.34,0,57.52-8.14,78.54-24.43,21.02-16.29,35.5-39.24,43.43-68.85,7.93-29.61,5.75-52.56-6.54-68.85-12.29-16.29-34.11-24.43-65.45-24.43h-115.49l-74.79,279.1h72.55ZM764.63,168h24.06c26.65,0,36.87,11.6,30.65,34.79-6.22,23.2-22.65,34.79-49.3,34.79h-24.06l18.65-69.59Z"/>
      <polygon class="cls-14" points="1334.6 217.97 1422.88 388.61 1495.06 388.61 1569.84 109.51 1497.66 109.51 1451.94 280.16 1363.66 109.51 1291.11 109.51 1216.33 388.61 1288.88 388.61 1334.6 217.97"/>
      <path class="cls-13" d="M685.31,462.75l-17.83,3.93c-2.13.47-3.49,2.6-3.02,4.74l9.07,41.19c.47,2.13,2.61,3.49,4.74,3.02l17.82-3.92c2-.44,2.82-7.49,11.5-9.41l114.27-25.16,1.94-.45,5.91-3.29-16.53-4.35,28.24-12.54-16.88-2.21,10.45-8.43-16.03-3.82,5.02-2.98-124.22,27.36c-8.72,1.92-12.48-4.12-14.46-3.69Z"/>
      <polygon class="cls-8" points="1587.17 47.6 723.82 47.6 717.29 72.4 1580.43 72.4 1587.17 47.6"/>
      <path class="cls-7" d="M971.74,151.16c-36.22,33.59-57.83,75.77-63.14,116.12-6.34,33.83-14.76,74.87-31.93,123.21l-.14-.15s-26.26,31.27-27.65,32.18l14.21,3.1c-1.96,4.68-4,9.41-6.12,14.21-.14.17-.21.26-.21.26,7.48-2.67,14.8-5.14,21.98-7.44l.12,16.61,29.26-25.3c50.72-13.77,93.1-18.96,127.75-22.75,39.82-2.95,82.3-21.23,117.67-54.03,69.56-64.51,85.25-160.69,35.05-214.82-50.2-54.13-147.29-45.72-216.85,18.78ZM1123.3,125.18l-46.47,51.68-18.06-15.88,35.35-39.38c10.09-.03,19.89,1.15,29.18,3.57ZM1082.9,122.13l-30.14,33.57-21.6-18.99c17.05-8.15,34.66-13.04,51.74-14.58ZM1023.49,140.62l23.92,21.04-15.81,17.61-28.84-25.48c6.73-4.95,13.67-9.34,20.73-13.17ZM953.83,207.67l29.16,25.75-14.98,16.69c-9.76-8.59-18.23-16.03-24.56-21.58,2.89-7.05,6.36-14.03,10.39-20.87ZM968.67,261.35c5.95,5.24,11.95,10.54,17.95,15.84l-43.81,48.72c-4.07-8.22-6.88-17.05-8.5-26.28l34.36-38.28ZM940.42,236.52c7.19,6.3,14.65,12.86,22.25,19.54l-29.66,33.04c-1.27-16.94,1.27-34.88,7.42-52.58ZM894.76,409.37l-5.47-5.71c11.78-16.94,23.49-39.24,28.72-65.71,4.67,10.17,10.88,19.61,18.68,28.03,8.66,9.33,18.71,16.81,29.77,22.46-30,1.7-53.94,10.82-71.7,20.94ZM998.83,372.3l42.2-46.72c5.83,5.23,11.37,10.21,16.53,14.88-12.61,13.96-23.89,26.47-32.61,36.16-9.04-.43-17.8-1.86-26.12-4.31ZM1035.67,376.66c9.02-10.01,18.36-20.37,27.82-30.83,8.73,7.93,16.1,14.71,21.52,19.84-16.43,6.67-33.2,10.37-49.34,11ZM1092.89,362.22c-5.85-5.62-14.19-13.34-24.05-22.31,5.13-5.68,10.29-11.37,15.43-17.04l30.61,27.03c-7.17,4.73-14.52,8.84-21.98,12.33ZM1145.23,324.8l-29.82-26.42c-1.73,2.04-3.57,3.97-5.51,5.81l29.6,26.23c-.27.26-.54.51-.81.77-5.49,5.09-11.19,9.77-17.04,14.02l-31.42-27.75c-5.25,2.4-10.83,4.2-16.66,5.3-3.62,4-7.18,7.93-10.65,11.77-3.94-3.57-8.07-7.3-12.34-11.13-5.82-.76-11.43-2.2-16.74-4.26.41.36.82.74,1.23,1.1l-44.47,49.24c-7.39-2.91-14.36-6.69-20.74-11.36l45.02-49.85c-2.09-1.66-4.1-3.43-5.99-5.3l-45.28,50.14c-2.2-1.94-4.33-4.01-6.36-6.19-3.93-4.24-7.38-8.79-10.35-13.59l45.7-50.82c1.08.95,2.14,1.89,3.21,2.84-2.68-5.07-4.79-10.49-6.22-16.18-5.39-4.76-10.62-9.37-15.59-13.75l14.4-16.04c1.06-6.39,2.96-12.48,5.58-18.19l-5.66,6.3-30.22-26.69c4.19-6.39,8.88-12.63,14.05-18.64l29.45,26.1c1.59-2.15,3.3-4.2,5.11-6.16l-29.21-25.88c2.89-3.08,5.91-6.09,9.07-9.02,3.18-2.94,6.42-5.74,9.73-8.41l29.95,26.46-3.36,3.74c5.41-3.23,11.28-5.76,17.48-7.5l13.04-14.53,13.84,12.17c5.57.55,10.95,1.75,16.08,3.48l-.51-.45,48.89-54.37c8.6,3.06,16.65,7.27,23.94,12.65l-49.52,54.84c2.06,1.7,4.02,3.51,5.88,5.42l49.87-55.22c2.12,1.88,4.16,3.88,6.12,5.99,3.37,3.63,6.38,7.49,9.04,11.55l-51.34,56.85-.41-.36c2.39,4.88,4.23,10.06,5.48,15.47l12.61,11.09c-3.59,3.91-7.29,7.94-11.05,12.05-.56,6.07-1.86,11.93-3.82,17.48l33.41,29.52c-4.99,6.81-10.56,13.41-16.72,19.7ZM1166.56,298.51l-33.35-29.47c5.61-6.14,11.03-12.06,16.21-17.7l29.24,25.71c-3.42,7.28-7.45,14.46-12.09,21.45ZM1182.03,269.36l-27.2-23.91c15.7-17.07,28.71-31.04,37.13-39.8,2.19,20.37-1.24,42.34-9.93,63.71ZM1148.82,240.17l-17.09-15.03,49.6-54.93c4.24,8,7.26,16.62,9.1,25.64-8.57,8.67-23.65,24.81-41.61,44.32Z"/>
      <polygon class="cls-10" points="865.84 456.91 874.31 473.63 884.02 456.29 865.84 456.91"/>
      <polygon class="cls-2" points="779.31 406.71 801.96 421.6 799.75 401.57 779.31 406.71"/>
      <polygon class="cls-3" points="935.42 465.22 931.74 453.84 915.93 473.07 935.42 465.22"/>
      <polygon class="cls-4" points="835.77 400.85 817.65 401.36 832.44 422.32 835.77 400.85"/>
      <polygon class="cls-5" points="883.92 501.17 884.43 480.65 865.43 487.7 883.92 501.17"/>
    </g>
  </g>
</svg>