<?xml version="1.0" encoding="UTF-8"?>
<svg id="Livello_2" data-name="Livello 2" xmlns="http://www.w3.org/2000/svg" viewBox="0 0 1493.88 1493.88">
  <defs>
    <style>
      .cls-1 {
        fill-rule: evenodd;
      }

      .cls-1, .cls-2 {
        fill: #fff;
      }

      .cls-3 {
        fill: #d46227;
      }

      .cls-4 {
        fill: #015434;
      }
    </style>
  </defs>
  <g id="Layer_1" data-name="Layer 1">
    <g>
      <circle class="cls-4" cx="746.94" cy="746.94" r="746.94"/>
      <circle class="cls-3" cx="746.94" cy="746.94" r="402.78"/>
      <g>
        <path class="cls-2" d="M325.53,1199.85l82.83-107.22,41.66,32.19c8.78,6.78,14.91,13.89,18.39,21.3,3.48,7.42,4.66,14.81,3.54,22.18-1.13,7.37-4.17,14.26-9.14,20.7-4.66,6.03-10.33,10.53-17.03,13.5-6.7,2.98-14.14,3.84-22.3,2.58-8.17-1.25-16.79-5.39-25.88-12.41l-18.69-14.44-30.41,39.36-22.98-17.75ZM393.12,1159.85l17.16,13.25c6.02,4.65,11.47,6.62,16.35,5.91,4.87-.72,9.13-3.42,12.76-8.12,3.71-4.8,5.25-9.6,4.64-14.39-.62-4.8-3.94-9.52-9.96-14.18l-17.15-13.25-23.79,30.79Z"/>
        <path class="cls-2" d="M455.23,1288.19l60.16-121.4,26.01,12.89-60.16,121.4-26.01-12.89Z"/>
        <path class="cls-2" d="M538.77,1326.27l34.95-130.9,50.87,13.58c10.72,2.86,19.12,7.04,25.2,12.54,6.08,5.5,10.02,11.86,11.83,19.09,1.81,7.23,1.67,14.77-.43,22.62-1.96,7.36-5.46,13.7-10.49,19.04-5.03,5.34-11.55,9-19.56,11-8.02,2-17.57,1.52-28.66-1.44l-22.81-6.09-12.83,48.06-28.05-7.49ZM585.64,1263.25l20.94,5.59c7.35,1.96,13.14,1.67,17.36-.87,4.22-2.55,7.09-6.69,8.63-12.42,1.56-5.86,1.13-10.88-1.29-15.07-2.42-4.18-7.31-7.26-14.67-9.22l-20.94-5.59-10.03,37.59Z"/>
        <path class="cls-2" d="M707.11,1360.44l-2.2-135.47,52.64-.85c11.09-.18,20.32,1.54,27.67,5.17,7.35,3.63,12.88,8.67,16.6,15.12,3.72,6.46,5.64,13.75,5.77,21.88.12,7.61-1.5,14.67-4.88,21.18-3.38,6.51-8.65,11.82-15.81,15.94-7.16,4.12-16.48,6.27-27.96,6.45l-23.61.38.81,49.74-29.03.47ZM734.96,1287.01l21.68-.35c7.61-.12,13.1-1.98,16.46-5.59,3.36-3.6,4.99-8.37,4.9-14.31-.1-6.06-1.89-10.78-5.36-14.14-3.48-3.36-9.02-4.98-16.63-4.86l-21.68.35.63,38.9Z"/>
        <path class="cls-2" d="M943.82,1330.65c-12.63,4.15-24.65,4.97-36.06,2.47-11.41-2.5-21.49-7.85-30.23-16.05-8.74-8.2-15.26-18.86-19.57-31.98-4.31-13.12-5.38-25.57-3.2-37.35,2.17-11.78,7.12-22.06,14.83-30.84,7.71-8.78,17.88-15.24,30.51-19.39,12.63-4.15,24.71-4.99,36.25-2.53,11.54,2.46,21.61,7.81,30.23,16.05,8.61,8.24,15.08,18.92,19.38,32.04,4.31,13.12,5.44,25.55,3.38,37.29-2.05,11.74-7,22.03-14.83,30.84-7.83,8.82-18.06,15.3-30.69,19.45ZM935.67,1305.83c7.48-2.46,13.32-6.28,17.53-11.46,4.21-5.18,6.76-11.35,7.67-18.51.91-7.16-.05-15.03-2.86-23.61-2.82-8.58-6.71-15.48-11.69-20.71-4.97-5.22-10.68-8.64-17.12-10.27-6.44-1.62-13.4-1.2-20.88,1.25-7.23,2.38-12.99,6.14-17.28,11.28-4.29,5.15-6.88,11.29-7.79,18.45-.91,7.16.05,15.03,2.86,23.61,2.82,8.58,6.72,15.49,11.69,20.71,4.98,5.23,10.72,8.67,17.25,10.33,6.52,1.66,13.4,1.3,20.63-1.07Z"/>
        <path class="cls-2" d="M1080.63,1267.08l-82.09-107.79,23.1-17.59,101.22,34.83-53.94-70.83,23.1-17.59,82.09,107.79-23.1,17.59-100.98-34.52,53.71,70.52-23.1,17.59Z"/>
      </g>
      <path class="cls-2" d="M746.94,1432.48c-92.54,0-182.32-18.13-266.85-53.88-40.62-17.18-79.8-38.45-116.45-63.21-36.3-24.52-70.43-52.69-101.45-83.71-31.02-31.02-59.18-65.15-83.71-101.45-24.76-36.65-46.03-75.83-63.21-116.45-35.75-84.52-53.88-174.3-53.88-266.85s18.13-182.32,53.88-266.85c17.18-40.62,38.45-79.8,63.21-116.45,24.52-36.3,52.69-70.43,83.71-101.45,31.02-31.02,65.15-59.18,101.45-83.71,36.65-24.76,75.83-46.03,116.45-63.21,84.52-35.75,174.3-53.88,266.85-53.88s182.32,18.13,266.85,53.88c40.62,17.18,79.8,38.45,116.45,63.21,36.3,24.52,70.43,52.69,101.45,83.71,31.02,31.02,59.18,65.15,83.71,101.45,24.76,36.65,46.03,75.83,63.21,116.45,35.75,84.52,53.88,174.3,53.88,266.85s-18.13,182.32-53.88,266.85c-17.18,40.62-38.45,79.8-63.21,116.45-24.52,36.3-52.69,70.43-83.71,101.45-31.02,31.02-65.15,59.18-101.45,83.71-36.65,24.76-75.83,46.03-116.45,63.21-84.52,35.75-174.3,53.88-266.85,53.88ZM746.94,77.95c-90.32,0-177.93,17.69-260.4,52.57-39.64,16.77-77.87,37.52-113.63,61.68-35.43,23.93-68.74,51.42-99.02,81.7-30.28,30.28-57.76,63.59-81.7,99.01-24.16,35.76-44.91,74-61.68,113.64-34.88,82.47-52.57,170.08-52.57,260.4s17.69,177.93,52.57,260.4c16.77,39.64,37.52,77.87,61.68,113.63,23.93,35.43,51.42,68.74,81.7,99.02,30.28,30.28,63.59,57.76,99.02,81.7,35.76,24.16,74,44.91,113.63,61.68,82.47,34.88,170.08,52.57,260.4,52.57s177.93-17.69,260.4-52.57c39.64-16.77,77.87-37.52,113.63-61.68,35.43-23.93,68.74-51.42,99.02-81.7,30.28-30.28,57.76-63.59,81.7-99.02,24.16-35.76,44.91-74,61.68-113.63,34.88-82.47,52.57-170.08,52.57-260.4s-17.69-177.93-52.57-260.4c-16.77-39.64-37.52-77.87-61.68-113.64-23.93-35.43-51.42-68.74-81.7-99.01-30.28-30.28-63.59-57.76-99.02-81.7-35.76-24.16-74-44.91-113.63-61.68-82.47-34.88-170.08-52.57-260.4-52.57Z"/>
      <path class="cls-1" d="M809.05,453.79c1.31,18.53-5.11,37.52-19.28,51.69-14.17,14.17-33.15,20.59-51.69,19.28,2.4-6.39,5.5-12.69,9.22-18.79,5.16-8.45,11.56-16.58,18.97-23.99,7.7-7.7,16.19-14.33,25.06-19.61,5.76-3.45,11.71-6.33,17.71-8.59M676.69,464.73c-1.78-19.01,4.61-38.63,19.16-53.18,14.55-14.55,34.17-20.94,53.17-19.16-2.32,6.36-5.35,12.67-9.01,18.81-5.28,8.82-11.87,17.29-19.55,24.97-8.1,8.1-17.08,15-26.43,20.41-5.68,3.28-11.5,6.02-17.34,8.16ZM789.77,411.55c8.82,8.82,14.63,19.5,17.45,30.78-7.36,2.61-14.68,6.07-21.74,10.28-9.7,5.78-18.95,12.98-27.27,21.31-7.96,7.96-14.92,16.81-20.6,26.13-4.53,7.43-8.23,15.13-10.98,22.88-11.28-2.81-21.96-8.63-30.78-17.46s-14.16-18.64-17.1-29.42c7.12-2.45,14.16-5.7,20.98-9.64,10.26-5.93,20.03-13.44,28.8-22.2,8.3-8.3,15.47-17.5,21.25-27.17,4.38-7.33,7.95-14.92,10.59-22.6,10.77,2.94,20.95,8.64,29.42,17.1Z"/>
      <g>
        <path class="cls-2" d="M395.06,425.77l-87.3-103.61,40.26-33.92c8.39-7.07,16.6-11.49,24.62-13.28,8.03-1.78,15.44-1.4,22.22,1.14,6.79,2.55,12.68,6.78,17.66,12.7,4.66,5.53,7.71,11.81,9.17,18.85,1.46,7.04.67,14.37-2.36,21.98-3.03,7.62-8.94,15.12-17.72,22.52l-17.91,15.09,33.55,39.82-22.2,18.71ZM370.24,351.26l16.73-14.09c5.53-4.66,8.47-9.42,8.84-14.29.37-4.87-1.36-9.57-5.18-14.11-3.74-4.44-8.02-6.86-12.84-7.28-4.82-.41-9.99,1.71-15.52,6.37l-16.73,14.09,24.69,29.31ZM448.49,380.75l-59.03-27.71,23.83-20.08,60.36,26.59-25.16,21.2Z"/>
        <path class="cls-2" d="M553.13,322c-12.19,5.31-24.08,7.25-35.67,5.82-11.6-1.42-22.13-5.81-31.59-13.16-9.46-7.35-16.95-17.35-22.46-30.01-5.51-12.66-7.74-24.95-6.67-36.89,1.06-11.93,5.03-22.63,11.89-32.09,6.86-9.46,16.38-16.84,28.56-22.15,12.18-5.31,24.14-7.27,35.85-5.9,11.71,1.37,22.25,5.76,31.59,13.16,9.35,7.4,16.77,17.43,22.29,30.09,5.51,12.66,7.8,24.93,6.85,36.81-.95,11.88-4.91,22.58-11.89,32.09-6.98,9.51-16.56,16.92-28.74,22.23ZM542.69,298.05c7.21-3.14,12.68-7.49,16.38-13.04,3.7-5.55,5.67-11.94,5.91-19.15.24-7.21-1.45-14.96-5.05-23.24-3.61-8.28-8.13-14.79-13.57-19.53-5.44-4.74-11.44-7.61-18.01-8.63-6.56-1.01-13.45.05-20.67,3.2-6.98,3.04-12.36,7.32-16.15,12.84-3.79,5.52-5.8,11.89-6.04,19.1-.24,7.21,1.45,14.96,5.05,23.24,3.61,8.28,8.13,14.79,13.57,19.53,5.44,4.74,11.48,7.63,18.13,8.68,6.65,1.05,13.46.05,20.44-2.99Z"/>
        <path class="cls-2" d="M639.32,289.53l-18.16-134.26,28.77-3.89,15.15,112.02,57.93-7.84,3.01,22.25-86.7,11.73Z"/>
        <path class="cls-2" d="M742.81,275.07l65.85-128.29,33.03,4.15,32.1,140.58-30.54-3.83-22.34-106.39-47.94,97.57-30.15-3.78ZM767.81,248.37l10.48-21.31,70.48,8.85,4.69,23.22-85.65-10.75Z"/>
        <path class="cls-2" d="M893.7,298.22l55.65-123.53,26.47,11.93,17.61,105.58,36.57-81.18,26.47,11.93-55.65,123.53-26.47-11.93-17.76-105.23-36.41,80.82-26.47-11.93Z"/>
        <path class="cls-2" d="M1025.75,362.99l89.13-102.04,35.42,30.94c11.86,10.36,19.8,21.02,23.83,32,4.03,10.98,4.59,21.91,1.67,32.81-2.93,10.9-8.88,21.5-17.88,31.8-8.91,10.2-18.57,17.49-28.98,21.85-10.41,4.36-21.34,5.31-32.8,2.83-11.46-2.47-23.12-8.89-34.98-19.24l-35.42-30.94ZM1064.04,363.29l12.25,10.7c7.87,6.88,15.21,11.02,22.03,12.44,6.81,1.42,13.27.54,19.37-2.61,6.1-3.16,12.07-8.09,17.93-14.79,5.94-6.8,10.07-13.44,12.37-19.9,2.31-6.47,2.3-12.98-.02-19.55-2.32-6.56-7.41-13.29-15.28-20.16l-12.25-10.7-56.41,64.58Z"/>
      </g>
      <path class="cls-2" d="M318.04,791.81c-42.94-39.59-69.69-87.69-75.89-135.79-5.86-45.36,6.59-90.83,41.02-129.2.41-.44.74-.81,1.07-1.16l1.24-1.28.19-.21c.47-.54,1.07-1.21,1.61-1.81h.02c.56-.63,1.12-1.24,1.54-1.69,35.46-37.43,79.77-53.53,125.46-51.36,16.29.77,32.77,3.91,49.11,9.17l.94-11.45c-16.46-5.09-33.06-8.11-49.51-8.89-48.85-2.31-96.22,14.88-134.1,54.87-.47.49-1.07,1.15-1.68,1.83h-.01c-.63.72-1.24,1.39-1.67,1.88l-1.14,1.17-.04.05c-.4.42-.81.86-1.29,1.4-36.79,41-50.09,89.6-43.83,138.1,6.55,50.72,34.53,101.22,79.4,142.58,33.37,30.77,76.08,53.22,119.87,65.16l1.11-11.28c-41.45-11.59-81.78-32.96-113.4-62.11Z"/>
      <path class="cls-1" d="M1212.66,529.84c-.46-.56-.84-1.02-1.23-1.46l-.04-.05-1.08-1.23c-.41-.51-.98-1.21-1.58-1.95h0c-.58-.71-1.15-1.4-1.6-1.91-35.97-41.71-82.49-61.1-131.39-61.08-51.13.03-104.79,21.34-151.53,60.57-46.74,39.21-80.76,97.07-94.12,154.4-12.77,54.82-6.72,109.33,25,147.13,31.72,37.8,84.35,53.23,140.56,50.17,58.77-3.2,121.66-26.66,168.39-65.88,46.75-39.23,77.06-88.37,85.97-138.72,8.51-48.16-2.5-97.33-37.33-140ZM1238.99,667.88c-8.45,47.76-37.42,94.55-82.16,132.1-44.92,37.69-105.34,60.25-161.81,63.32-52.85,2.88-102.09-11.33-131.37-46.23-29.29-34.9-34.73-85.86-22.72-137.4,12.83-55.07,45.53-110.66,90.46-148.36,44.74-37.54,95.86-57.94,144.36-57.96,45.73-.03,89.25,18.12,122.92,57.16.4.47.94,1.11,1.46,1.75l.02.02c.51.62,1.07,1.31,1.52,1.87l.18.22,1.18,1.33c.31.37.63.74,1.02,1.21,32.6,39.94,42.91,85.94,34.95,130.98Z"/>
      <path class="cls-1" d="M1148.7,582.53l45.94-38.55c-.67-.81-1.16-1.37-1.9-2.21-.71-.89-1.85-2.29-2.66-3.24l-45.94,38.55-14.09-16.8,44.67-37.49c-1.79-1.61-3.62-3.18-5.46-4.7l-43.78,36.74-14.09-16.79,39.37-33.03c-2.18-1.31-4.38-2.56-6.59-3.75l-37.34,31.33-14.09-16.79,28.91-24.26c-2.69-.9-5.4-1.73-8.13-2.47l-25.36,21.28-14.09-16.79,11.2-9.39c-3.48-.27-6.98-.42-10.5-.47l-5.27,4.42-3.61-4.3c-2.92.11-5.85.31-8.8.58l6.96,8.3-16.79,14.09-14.09-16.79,2.86-2.4c-1.36.29-2.72.64-4.08.95l-.03-.04c-.7.17-1.41.37-2.11.54-1.19.29-2.38.6-3.56.92-.65.17-1.31.32-1.96.5l.03.04c-1.41.39-2.82.75-4.23,1.18l-13.73,11.53-4.33-5.16c-2.29.92-4.56,1.9-6.85,2.91l5.73,6.83-16.79,14.09-9.05-10.78c-2.09,1.18-4.16,2.39-6.23,3.64l9.83,11.72-16.8,14.1-11.4-13.58c-1.91,1.39-3.8,2.81-5.69,4.27l11.65,13.88-16.8,14.09-11.65-13.89c-1.74,1.6-3.46,3.25-5.16,4.91l11.37,13.55-16.8,14.09-9.67-11.52c-1.56,1.83-3.11,3.68-4.62,5.55l8.84,10.54-16.79,14.09-5.47-6.52c-1.39,2.04-2.75,4.11-4.09,6.19l4.11,4.9-13.9,11.66c-.65,1.2-1.26,2.41-1.89,3.61l-.02-.02c-.39.74-.76,1.49-1.14,2.24-.55,1.08-1.11,2.16-1.65,3.24-.23.47-.48.93-.72,1.41l.02.03c-.9,1.85-1.82,3.69-2.68,5.55l4.3-3.61,14.09,16.79-16.79,14.09-8.73-10.4c-.98,2.57-1.9,5.14-2.8,7.72l6.09,7.25-11.23,9.42c-.79,2.92-1.46,5.84-2.13,8.76l-.05-.06c-.15.66-.27,1.32-.41,1.98-.07.33-.17.66-.24.98l.04-.03c-.43,1.98-.87,3.95-1.24,5.93l11.69,13.93-15,12.58c-.19,3.21-.29,6.39-.32,9.55l19.89-16.69,14.09,16.79-32.03,26.88c.43,2.7.93,5.37,1.5,8.01l35.09-29.45,14.1,16.8-42.09,35.32c.96,2.27,1.98,4.5,3.08,6.7l43.58-36.57,14.09,16.79-45.88,38.5c.73.94,1.47,1.86,2.23,2.77.77.91,1.55,1.8,2.35,2.68l45.88-38.5,14.09,16.79-43.58,36.57c1.97,1.46,3.99,2.85,6.06,4.19l42.09-35.32,14.09,16.79-35.1,29.45c2.51,1.02,5.05,1.98,7.64,2.87l32.03-26.88,14.09,16.79-19.89,16.69c3.11.53,6.28.98,9.46,1.34l15-12.58,11.69,13.93c2-.03,4.02-.12,6.04-.19l-.03.03c.28-.01.56-.04.83-.05.74-.03,1.47-.03,2.21-.07l-.06-.07c2.99-.15,5.98-.3,8.99-.57l11.23-9.43,6.09,7.26c2.69-.43,5.39-.9,8.09-1.42l-8.73-10.41,16.79-14.09,14.09,16.79-4.31,3.61c1.98-.52,3.96-1.1,5.93-1.67l.03.03c.59-.17,1.18-.36,1.77-.54.84-.25,1.68-.51,2.51-.77,1.04-.32,2.07-.62,3.11-.95l-.03-.03c1.29-.41,2.6-.8,3.89-1.24l13.91-11.67,4.12,4.91c2.28-.95,4.55-1.94,6.8-2.95l-5.47-6.52,16.79-14.09,8.85,10.54c2.11-1.17,4.2-2.36,6.27-3.59l-9.67-11.53,16.8-14.1,11.38,13.56c1.92-1.39,3.84-2.79,5.72-4.23l-11.66-13.89,16.79-14.09,11.66,13.89c1.76-1.61,3.49-3.23,5.19-4.87l-11.4-13.59,16.8-14.09,9.84,11.72c1.58-1.82,3.15-3.65,4.66-5.5l-9.06-10.79,16.79-14.09,5.73,6.83c1.4-2.06,2.75-4.15,4.05-6.23l-4.33-5.17,13.73-11.52c.66-1.31,1.27-2.64,1.9-3.96l.03.04c.3-.64.58-1.29.88-1.93.51-1.09,1-2.19,1.49-3.28.29-.65.61-1.31.89-1.96l-.03-.04c.55-1.28,1.13-2.56,1.65-3.85l-2.86,2.4-14.09-16.79,16.79-14.09,6.96,8.3c.46-1.71.89-3.42,1.31-5.14-1.08-2.44-2.21-4.87-3.33-7.31l5.77-4.84c.57-3.47,1.02-6.95,1.35-10.42l-11.19,9.39-14.09-16.79,25.36-21.28c-.25-2.82-.6-5.62-1.01-8.42l-28.91,24.26-14.09-16.8,37.34-31.33c-.78-2.39-1.63-4.78-2.54-7.15l-39.37,33.03-14.09-16.79,43.78-36.74c-1.17-2.08-2.4-4.14-3.68-6.19l-44.67,37.48-14.09-16.79ZM1157.34,603.89l-16.79,14.09-14.09-16.79,16.79-14.09,14.09,16.79ZM1113.86,687.55l14.09,16.8-16.8,14.09-14.09-16.8,16.8-14.09ZM1092.49,696.2l-14.09-16.79,16.8-14.09,14.09,16.79-16.8,14.09ZM1119.3,682.99l16.79-14.09,14.09,16.8-16.79,14.09-14.09-16.8ZM1114.73,677.54l-14.09-16.79,16.79-14.09,14.09,16.79-16.79,14.09ZM1104.22,619.85l16.8-14.09,14.09,16.79-16.8,14.09-14.09-16.79ZM1099.65,614.4l-14.09-16.8,16.8-14.09,14.09,16.8-16.8,14.09ZM1080.98,592.16l-14.09-16.79,16.8-14.09,14.09,16.79-16.8,14.09ZM1075.54,596.73l-16.79,14.09-14.09-16.79,16.79-14.09,14.09,16.79ZM1062.32,569.92l-14.09-16.79,16.8-14.09,14.09,16.79-16.8,14.09ZM1056.88,574.49l-16.79,14.09-14.09-16.79,16.79-14.09,14.09,16.79ZM1034.64,593.15l-16.8,14.09-14.09-16.79,16.8-14.09,14.09,16.79ZM1021.43,566.34l-14.09-16.79,16.79-14.09,14.09,16.79-16.79,14.09ZM1015.98,570.91l-16.8,14.09-14.09-16.79,16.8-14.09,14.09,16.79ZM1063.32,616.27l16.79-14.09,11.65,13.89c1.05-1.07,1.62-1.51,1.37-.85-.12.32-.28,1.04-.46,1.93l1.53,1.82-2.19,1.83c-.48,2.92-1.03,6.65-1.6,10.62l8.35-7.01,14.09,16.79-16.79,14.09-7.66-9.13c-.65,4.95-1.13,8.69-1.24,9.58l3.46,4.13-16.8,14.09-6.59-7.86-6.51,3.3,7.66,9.13-6.14,5.15,6.11,4.15,4.59-3.85,14.09,16.79-2.28,1.92,2.13,7.49,4.72-3.96,14.09,16.8-16.79,14.09-11.32-13.49-7.77,1.79,13.64,16.26-16.8,14.1-14.09-16.79,15.75-13.21-15.27,3.53-5.05,4.24-2.16-2.57-1.88.43-25.9-27.15-3.93-.02,9.77,11.64-16.79,14.09-14.09-16.79,10.73-9-10.99-.06-4.31,3.62-3.07-3.66-9.3-.05-2.33-2.74,9.25,11.03-16.79,14.09-14.09-16.79,16.76-14.06-4.61-5.42-16.72,14.03-14.09-16.8,16.79-14.09,10,11.92,5.72-4.24-10.27-12.24,16.79-14.09,11.12,13.25,3.28-2.44.54-4.07-9.49-11.32,12.36-10.37.93-7.05-.11-12.05-9.59-11.43,8.39-7.04-1.5-8.02-11.46,9.62-14.09-16.79,16.8-14.09,14.09,16.79-3.72,3.12,6.04,4.22,2.25-1.89,7.03,8.37,15.04,11.59,3.8-.44-1.77-1.86,16.8-14.09,13.59,16.19,6.1-.99M1006.23,739.96l14.09,16.79-16.79,14.09-14.09-16.79,16.79-14.09ZM984.87,748.61l-14.09-16.79,16.79-14.09,14.09,16.79-16.79,14.09ZM1011.68,735.39l16.79-14.09,14.09,16.79-16.79,14.09-14.09-16.79ZM967.92,649.14l-16.79,14.09-14.09-16.79,16.79-14.09,14.09,16.79ZM959.27,627.77l16.8-14.09,14.09,16.79-16.8,14.09-14.09-16.79ZM945.68,667.8l-16.79,14.09-14.09-16.79,16.79-14.09,14.09,16.79ZM971.5,608.23l-16.8,14.09-14.09-16.79,16.8-14.09,14.09,16.79ZM949.26,626.89l-16.79,14.09-14.09-16.79,16.79-14.09,14.09,16.79ZM927.02,645.56l-16.79,14.09-14.09-16.8,16.79-14.09,14.09,16.79ZM923.44,686.46l-16.79,14.09-14.09-16.79,16.79-14.09,14.09,16.79ZM928.01,691.9l14.09,16.8-16.79,14.09-14.09-16.8,16.79-14.09ZM946.67,714.14l14.09,16.79-16.79,14.09-14.09-16.79,16.79-14.09ZM965.34,736.39l14.09,16.79-16.79,14.09-14.09-16.79,16.79-14.09ZM983.99,758.62l14.09,16.79-16.79,14.09-14.09-16.79,16.79-14.09ZM1002.66,780.86l14.09,16.79-16.79,14.09-14.09-16.79,16.79-14.09ZM1008.1,776.29l16.79-14.09,14.09,16.79-16.79,14.09-14.09-16.79ZM1030.34,757.63l16.79-14.09,14.09,16.79-16.79,14.09-14.09-16.79ZM1065.79,765.78l14.09,16.79-16.79,14.09-14.09-16.79,16.79-14.09ZM1071.24,761.21l16.8-14.1,14.09,16.79-16.8,14.1-14.09-16.79ZM1093.48,742.55l16.79-14.09,14.09,16.79-16.79,14.09-14.09-16.79ZM1115.72,723.89l16.8-14.09,14.09,16.79-16.8,14.09-14.09-16.79ZM1137.96,705.22l16.79-14.09,14.09,16.79-16.79,14.09-14.09-16.79ZM1160.2,686.56l16.8-14.09,14.09,16.79-16.8,14.09-14.09-16.79ZM1155.63,681.12l-14.09-16.8,16.8-14.09,14.09,16.8-16.8,14.09ZM1136.97,658.88l-14.09-16.79,16.8-14.09,14.09,16.79-16.8,14.09ZM1124.59,564.85l14.09,16.8-16.79,14.09-14.09-16.8,16.79-14.09ZM1120.02,559.41l-16.79,14.09-14.09-16.79,16.79-14.09,14.09,16.79ZM1087.27,520.38l14.09,16.79-16.79,14.09-14.09-16.79,16.79-14.09ZM1068.6,498.13l14.09,16.79-16.79,14.09-14.09-16.79,16.79-14.09ZM1046.37,516.79l14.09,16.79-16.8,14.09-14.09-16.79,16.8-14.09ZM1027.71,494.56l14.09,16.79-16.8,14.09-14.09-16.79,16.8-14.09ZM1005.46,513.22l14.09,16.79-16.79,14.09-14.09-16.79,16.79-14.09ZM983.23,531.88l14.09,16.79-16.8,14.09-14.09-16.79,16.8-14.09ZM960.99,550.54l14.09,16.79-16.8,14.09-14.09-16.79,16.8-14.09ZM938.75,569.2l14.09,16.79-16.8,14.09-14.09-16.79,16.8-14.09ZM916.51,587.86l14.09,16.79-16.79,14.09-14.09-16.79,16.8-14.09ZM877.47,620.61l16.79-14.09,14.09,16.79-16.79,14.09-14.09-16.79ZM890.69,647.42l14.09,16.79-16.79,14.09-14.09-16.79,16.79-14.09ZM865.75,696.97l-14.09-16.8,16.79-14.09,14.09,16.79-16.79,14.09ZM870.32,702.42l16.79-14.09,14.09,16.79-16.79,14.09-14.09-16.79ZM888.98,724.65l16.79-14.09,14.09,16.8-16.79,14.09-14.09-16.8ZM921.73,763.69l-14.09-16.79,16.79-14.09,14.09,16.79-16.79,14.09ZM926.3,769.14l16.79-14.09,14.09,16.79-16.79,14.09-14.09-16.79ZM959.05,808.17l-14.09-16.79,16.79-14.09,14.09,16.79-16.79,14.09ZM963.63,813.62l16.79-14.09,14.09,16.79-16.79,14.09-14.09-16.79ZM996.37,852.64l-14.09-16.79,16.79-14.09,14.09,16.79-16.79,14.09ZM1018.62,833.98l-14.09-16.79,16.79-14.09,14.09,16.79-16.79,14.09ZM1040.85,815.32l-14.09-16.79,16.79-14.09,14.09,16.79-16.79,14.09ZM1059.52,837.56l-14.09-16.79,16.79-14.09,14.09,16.79-16.79,14.09ZM1081.75,818.9l-14.09-16.79,16.79-14.09,14.09,16.79-16.79,14.09ZM1103.99,800.24l-14.09-16.79,16.8-14.1,14.09,16.79-16.8,14.1ZM1126.24,781.58l-14.09-16.79,16.79-14.09,14.09,16.79-16.79,14.09ZM1148.47,762.92l-14.09-16.79,16.8-14.09,14.09,16.79-16.8,14.09ZM1170.71,744.26l-14.09-16.79,16.79-14.09,14.09,16.79-16.79,14.09ZM1209.75,711.51l-16.8,14.09-14.09-16.79,16.8-14.09,14.09,16.79ZM1213.32,670.6l-16.79,14.09-14.09-16.79,16.79-14.09,14.09,16.79ZM1180.57,631.57l14.09,16.8-16.79,14.09-14.09-16.8,16.79-14.09ZM1176,626.12l-16.79,14.09-14.09-16.79,16.79-14.09,14.09,16.79Z"/>
      <polygon class="cls-1" points="940.7 547.24 942.19 545.75 942.19 545.75 940.7 547.24"/>
      <path class="cls-2" d="M657.44,1013.43l17.8-28.7-16.6,8.38,4.26-14.04-16.83,6.4,2.7-5.79-95.36,101.13c-6.7,7.1-13.81,3.96-15.33,5.56l-13.69,14.52c-1.64,1.74-1.55,4.5.18,6.14l33.53,31.62c1.74,1.64,4.5,1.55,6.14-.18l13.68-14.51c1.54-1.63-2.07-8.5,4.6-15.57l87.72-93.02,1.48-1.6,3.31-6.6-17.6,6.24Z"/>
      <path class="cls-1" d="M802.11,926.45l-10.51-8.76c20.81-6.89,42.07-13.07,63.78-18.58,34.18-8.67,69.49-15.64,105.82-21.04l73.09-10.83-73.65-5.81c-20.76-1.64-40.33-6.28-57.57-14.18-16.01-7.33-30.05-17.52-41.13-30.74-11.1-13.22-18.69-28.81-23.13-45.85-4.78-18.36-5.95-38.44-3.96-59.17l7.08-73.58-23.38,70.13c-11.62,34.86-24.6,68.42-39.09,100.57-9,20-18.57,39.46-28.72,58.38-10.55-19.39-20.49-39.36-29.82-59.9-14.6-32.1-27.72-65.61-39.46-100.42l-23.64-70.04,7.35,73.55c2.06,20.72.97,40.81-3.74,59.18-4.38,17.06-11.92,32.68-22.96,45.94-11.04,13.26-25.04,23.5-41.02,30.89-17.21,7.96-36.76,12.68-57.52,14.4l-73.63,6.08,73.13,10.56c36.35,5.26,71.68,12.1,105.89,20.64,22.7,5.67,44.91,12.08,66.63,19.26l-11.3,9.48-7.73,22.91,19.33-16.61-15.31,39.08,16.42-5.97-.55,1.03,10.74-9.18h0s1.03-.88,1.03-.88l.04-.03,26.79-22.47,24.93,20.76.04.03,1.03.87h0s62.74,53.2,62.74,53.2l98.25,81.81c7.47,6.22,4.71,13.47,6.44,14.9l15.33,12.76c1.83,1.53,4.59,1.28,6.12-.56l29.49-35.42c1.53-1.83,1.28-4.58-.55-6.12l-15.33-12.77c-1.7-1.41-8.38,2.57-15.88-3.68l-144.04-119.96-17.81-13.89ZM794.72,815.49c8.62-19.14,16.7-38.7,24.25-58.64.89,6.16,2.08,12.19,3.61,18.07,5.07,19.42,13.75,37.22,26.48,52.39,12.72,15.16,28.74,26.8,46.99,35.16,5.53,2.53,11.26,4.77,17.18,6.69-20.96,3.99-41.62,8.55-61.97,13.71-25.42,6.44-50.34,13.85-74.74,22.25l-7.63-6.35c-2.88-4.8-5.72-9.65-8.52-14.52,12.3-22.27,23.75-45.2,34.35-68.76ZM649.36,881.62c-20.37-5.09-41.04-9.57-62.02-13.48,5.91-1.95,11.63-4.21,17.15-6.76,18.22-8.43,34.19-20.13,46.86-35.34,12.67-15.21,21.29-33.05,26.28-52.49,1.51-5.89,2.68-11.93,3.55-18.09,7.62,19.92,15.78,39.45,24.47,58.55,10.96,24.1,22.79,47.54,35.53,70.28-3.08,5.43-6.2,10.82-9.38,16.16l-4.86,4.07c-25.31-8.7-51.18-16.33-77.58-22.92Z"/>
      <path class="cls-2" d="M575.71,521.8c-32.87-27.37-69.1-45.89-105.44-54.49l-.07,2.21-.29,9.17c33.91,8.42,67.76,26.01,98.63,51.72,45.06,37.53,77.97,93,91,148.03,12.21,51.5,6.95,102.48-22.21,137.49-29.15,35-78.33,49.4-131.19,46.72-16.22-.82-32.77-3.3-49.2-7.24l-.1,2.18-.44,9.15c16.43,3.81,32.95,6.23,49.17,7.05,56.22,2.85,108.79-12.77,140.37-50.69,31.58-37.92,37.44-92.45,24.46-147.22-13.57-57.28-47.81-115.01-94.69-154.05Z"/>
      <path class="cls-2" d="M477.89,838.87l-8.69,10.44c2.7.51,5.4.96,8.09,1.39l6.06-7.28,11.27,9.39c3.01.26,6,.4,9,.54l-.06.07c.72.03,1.44.03,2.16.06.29.01.59.04.88.05l-.04-.03c2.02.07,4.04.15,6.04.17l11.64-13.97,15.05,12.53c3.18-.38,6.33-.84,9.45-1.38l-19.95-16.62,14.03-16.85,32.13,26.76c2.59-.9,5.13-1.87,7.63-2.9l-35.21-29.32,14.03-16.84,42.22,35.16c2.07-1.35,4.08-2.75,6.05-4.21l-43.72-36.41,14.03-16.84,46.03,38.33c.8-.89,1.57-1.78,2.33-2.69.75-.91,1.49-1.84,2.22-2.78l-46.03-38.33,14.03-16.84,43.72,36.41c1.08-2.2,2.1-4.44,3.05-6.71l-42.22-35.16,14.03-16.85,35.2,29.32c.56-2.64,1.05-5.31,1.47-8.02l-32.13-26.76,14.03-16.85,19.95,16.61c-.04-3.16-.16-6.35-.35-9.55l-15.04-12.53,11.63-13.97c-.38-1.97-.83-3.95-1.26-5.93l.04.03c-.07-.33-.17-.66-.24-.99-.15-.66-.26-1.31-.42-1.97l-.05.06c-.68-2.92-1.36-5.84-2.16-8.75l-11.26-9.38,6.06-7.27c-.91-2.57-1.84-5.15-2.83-7.71l-8.69,10.44-16.85-14.03,14.03-16.85,4.31,3.59c-.87-1.86-1.79-3.69-2.7-5.54l.03-.03c-.25-.5-.51-.99-.76-1.48-.53-1.05-1.07-2.09-1.61-3.13-.39-.75-.76-1.51-1.16-2.25l-.02.02c-.64-1.2-1.25-2.41-1.9-3.61l-13.94-11.61,4.1-4.92c-1.34-2.08-2.72-4.13-4.11-6.18l-5.45,6.54-16.84-14.03,8.8-10.57c-1.52-1.87-3.07-3.71-4.64-5.54l-9.63,11.56-16.84-14.03,11.32-13.59c-1.71-1.66-3.43-3.29-5.18-4.89l-11.6,13.93-16.84-14.03,11.6-13.93c-1.9-1.45-3.8-2.86-5.72-4.25l-11.35,13.63-16.85-14.03,9.79-11.75c-2.07-1.24-4.15-2.45-6.24-3.61l-9.01,10.82-16.84-14.03,5.71-6.85c-2.29-1-4.57-1.96-6.86-2.88l-4.31,5.18-13.78-11.47c-1.41-.42-2.82-.78-4.23-1.16l.03-.03c-.62-.17-1.24-.31-1.86-.47-1.23-.32-2.46-.64-3.69-.94-.11-.03-.23-.06-.34-.09l-.07,2.25-.17,5.46-.04,1.21,2.76-3.31,16.85,14.03-14.02,16.84-6.29-5.23-.13,4.27-.15,4.75,2.02,1.68-2.15,2.58-.18,5.63-15.54,12.44,4.34,6.71.41-.5,16.84,14.03-4.79,5.75,2.94,4.55,1.1,1.71,6.21-7.46,16.85,14.03-10.59,12.72,2.94,4.55,1.1,1.71,12.01-14.42,16.84,14.03-14.03,16.84-9.09-7.57,1.11,1.72-1.04,2.72-1.41,3.69,5.89,4.91-14.03,16.85-.15-.12-5.93,15.49-2.15,5.62,9.14-10.98,16.85,14.03-14.03,16.85-14.84-12.36-1.27,3.32-1.42,3.7,12.98,10.81-14.03,16.84-8.89-7.4-1.55,3.09-1.72,3.44,7.61,6.33-14.03,16.84-.43-.36,3.48,12.15,14.71,12.25-8.34,10.01,1.72,6.01.55,1.91-.07.55,11.6-13.93,16.84,14.03-14.03,16.85-15-12.49-.52,3.95-.58,4.39,11.54,9.61-14.03,16.84-.88-.74-.52,3.96-.42,8.89-.06,1.27,2.8-3.36,16.85,14.03ZM504.75,851.98l-16.85-14.03,14.03-16.85,16.85,14.03-14.03,16.85ZM523.33,829.68l-16.85-14.03,14.03-16.85,16.85,14.03-14.03,16.85ZM539.91,730.14l14.03-16.84,16.85,14.03-14.03,16.84-16.85-14.03ZM552.2,749.64l-14.03,16.84-16.85-14.03,14.03-16.84,16.85,14.03ZM567.06,686.43l-14.03,16.85-16.84-14.03,14.03-16.85,16.84,14.03ZM554.76,666.95l14.03-16.85,16.84,14.03-14.03,16.85-16.84-14.03ZM558.49,707.83l14.03-16.85,16.85,14.03-14.03,16.85-16.85-14.03ZM577.07,685.53l14.03-16.85,16.85,14.03-14.03,16.85-16.85-14.03ZM573.34,644.64l14.03-16.85,16.84,14.03-14.03,16.85-16.84-14.03ZM567.88,640.08l-16.84-14.03,14.03-16.85,16.84,14.03-14.03,16.85ZM545.57,621.5l-16.85-14.03,14.03-16.85,16.85,14.03-14.03,16.85ZM563.32,645.55l-14.03,16.85-16.84-14.03,14.03-16.85,16.84,14.03ZM544.75,667.86l-14.03,16.85-16.84-14.03,14.03-16.85,16.84,14.03ZM548.47,708.75l-14.03,16.84-16.84-14.03,14.03-16.85,16.84,14.03ZM529.89,731.05l-14.03,16.84-16.84-14.03,14.03-16.84,16.84,14.03ZM533.63,771.94l-14.03,16.84-16.85-14.03,14.03-16.84,16.85,14.03ZM541.91,807.37l-16.85-14.03,14.03-16.84,16.85,14.03-14.03,16.84ZM560.48,785.06l-16.85-14.03,14.03-16.84,16.85,14.03-14.03,16.84ZM579.06,762.75l-16.85-14.03,14.03-16.84,16.85,14.03-14.03,16.84ZM597.64,740.44l-16.85-14.03,14.03-16.85,16.85,14.03-14.03,16.85ZM616.22,718.13l-16.85-14.03,14.03-16.85,16.85,14.03-14.03,16.85ZM648.83,678.98l-14.03,16.85-16.85-14.03,14.03-16.85,16.85,14.03ZM626.52,660.4l-14.03,16.85-16.85-14.03,14.03-16.85,16.85,14.03ZM622.79,619.51l-14.03,16.85-16.84-14.03,14.03-16.84,16.84,14.03ZM600.48,600.93l-14.03,16.84-16.84-14.03,14.03-16.84,16.84,14.03ZM578.17,582.35l-14.03,16.84-16.85-14.03,14.03-16.84,16.85,14.03ZM555.87,563.78l-14.03,16.84-16.84-14.03,14.03-16.84,16.85,14.03ZM533.56,545.2l-14.03,16.84-16.85-14.03,14.03-16.84,16.85,14.03ZM494.4,512.59l16.84,14.03-14.03,16.84-16.84-14.03,14.03-16.84ZM461.8,551.74l14.03-16.84,16.84,14.03-14.03,16.84-16.84-14.03ZM484.11,570.32l14.03-16.84,16.85,14.03-14.03,16.85-16.85-14.03ZM506.42,588.9l14.03-16.84,16.84,14.03-14.03,16.85-16.84-14.03ZM524.17,612.94l16.85,14.03-14.03,16.84-16.85-14.03,14.03-16.84ZM491.56,652.1l14.03-16.85,16.85,14.03-14.03,16.85-16.85-14.03ZM509.32,676.14l16.84,14.03-14.03,16.85-16.84-14.03,14.03-16.85ZM490.74,698.45l16.85,14.03-14.03,16.84-16.85-14.03,14.03-16.84ZM458.14,737.6l14.03-16.84,16.84,14.03-14.03,16.84-16.85-14.03ZM480.45,756.18l14.03-16.84,16.84,14.03-14.03,16.84-16.84-14.03ZM498.2,780.22l16.85,14.03-14.03,16.85-16.85-14.03,14.03-16.85ZM479.62,802.53l16.85,14.03-14.03,16.84-16.85-14.03,14.03-16.84Z"/>
      <path class="cls-2" d="M457.38,486.5l-.04.04c-1.34-.38-2.68-.79-4.03-1.14l2.75,2.53-14.86,16.11-16.12-14.86,7.34-7.96c-2.93-.4-5.84-.73-8.76-.99l-3.81,4.13-5.06-4.66c-3.51-.11-7.02-.12-10.51-.01l10.74,9.9-14.86,16.12-24.34-22.44c-2.76.62-5.51,1.31-8.23,2.09l27.75,25.58-14.86,16.11-35.83-33.04c-2.27,1.08-4.53,2.23-6.76,3.43l37.78,34.83-14.86,16.12-42.02-38.74c-1.91,1.43-3.81,2.91-5.67,4.44l42.87,39.53-14.86,16.12-44.09-40.65c-.86.92-2.07,2.26-2.81,3.11-.78.8-1.3,1.34-2.01,2.12l44.08,40.65-14.86,16.11-42.87-39.53c-1.38,1.99-2.7,3.99-3.97,6.01l42.02,38.74-14.86,16.12-37.78-34.83c-1.02,2.33-1.99,4.67-2.88,7.02l35.83,33.04-14.86,16.12-27.75-25.58c-.54,2.78-1.02,5.57-1.4,8.37l24.33,22.44-14.86,16.11-10.74-9.9c.17,3.49.46,6.98.87,10.47l5.53,5.1c-1.24,2.38-2.48,4.76-3.67,7.15.34,1.73.68,3.46,1.07,5.19l7.35-7.97,16.12,14.86-14.86,16.12-2.75-2.53c.46,1.31.98,2.61,1.47,3.92l-.03.04c.25.67.54,1.33.8,2,.44,1.13.89,2.26,1.35,3.38.26.65.5,1.29.77,1.94l.03-.04c.57,1.35,1.11,2.7,1.71,4.04l13.18,12.15-4.57,4.96c1.21,2.15,2.46,4.29,3.75,6.42l6.04-6.56,16.12,14.86-9.55,10.36c1.43,1.92,2.9,3.82,4.4,5.71l10.37-11.25,16.12,14.86-12.02,13.04c1.62,1.71,3.27,3.42,4.96,5.11l12.29-13.33,16.12,14.86-12.29,13.33c1.81,1.53,3.66,3.02,5.52,4.5l12-13.01,16.12,14.86-10.2,11.06c2.01,1.32,4.04,2.61,6.1,3.88l9.33-10.12,16.12,14.86-5.77,6.26c2.2,1.11,4.42,2.21,6.66,3.26l4.34-4.71,13.34,12.3c1.27.49,2.55.94,3.82,1.42l-.03.03c.98.37,1.98.7,2.96,1.06.87.31,1.75.63,2.62.94.56.2,1.13.41,1.69.6l.03-.03c1.95.66,3.89,1.33,5.85,1.95l-4.13-3.81,14.86-16.12.87.8.87-8.86.98-5.38-3.13,3.39-16.11-14.86,14.86-16.12,8.06,7.43,1.51-8.27-4.76-4.38,5.93-6.43-1.95-8.38-9.2,9.98-16.12-14.86,14.86-16.12,7.1,6.55-4.59-19.76-2.92,3.16-16.12-14.86,14.86-16.12,10.85,10,3.59-6.36-9.62-8.87,14.86-16.12,5.84,5.39.8-1.41,2.36-5.35-4.19-3.86,11.32-12.27,8.9-20.14-5.76,6.25-16.12-14.86,14.86-16.12,12.75,11.76,3.03-6.87-10.97-10.11,4.83-5.23-3.72-6.45-6.33,6.87-16.12-14.86,10.97-11.9-3.72-6.45-12.47,13.53-16.12-14.86,14.86-16.11,7.83,7.22-8.55-14.82,16.15-11.64,1.2-14.6-13.46-12.42,14.86-16.11.88.81.45-5.45c-1.06-.33-2.12-.66-3.19-.98-.68-.2-1.37-.43-2.05-.63ZM420.27,494.41l16.12,14.86-14.86,16.12-16.12-14.86,14.86-16.12ZM400.58,515.76l16.12,14.86-14.86,16.11-16.12-14.86,14.86-16.11ZM366.22,681.51l16.12,14.86-14.86,16.12-16.12-14.86,14.86-16.12ZM346.13,692.82l-16.12-14.86,14.86-16.12,16.12,14.86-14.86,16.12ZM349.7,656.61l14.86-16.12,16.12,14.86-14.86,16.12-16.12-14.86ZM369.37,635.26l14.86-16.11,16.12,14.86-14.86,16.12-16.12-14.86ZM367.71,594.24l14.86-16.12,16.12,14.86-14.86,16.12-16.12-14.86ZM379.01,614.33l-14.86,16.11-16.12-14.86,14.86-16.11,16.12,14.86ZM359.33,635.67l-14.86,16.12-16.12-14.86,14.86-16.12,16.12,14.86ZM339.65,657.02l-14.86,16.12-16.12-14.86,14.86-16.12,16.12,14.86ZM319.97,678.36l-14.86,16.12-16.12-14.86,14.86-16.12,16.12,14.86ZM325.2,683.18l16.12,14.86-14.86,16.12-16.12-14.86,14.86-16.12ZM346.54,702.86l16.12,14.86-14.86,16.12-16.12-14.86,14.86-16.12ZM367.89,722.54l16.12,14.86-14.86,16.12-16.12-14.86,14.86-16.12ZM389.23,742.21l16.12,14.86-14.86,16.12-16.12-14.86,14.86-16.12ZM372.7,717.31l14.86-16.12,16.12,14.86-14.86,16.12-16.12-14.86ZM371.04,676.29l14.86-16.12,16.12,14.86-14.86,16.12-16.12-14.86ZM390.72,654.94l14.86-16.11,16.12,14.86-14.86,16.11-16.12-14.86ZM410.4,633.6l14.86-16.12,16.12,14.86-14.86,16.12-16.12-14.86ZM405.17,628.78l-16.12-14.86,14.86-16.12,16.12,14.86-14.86,16.12ZM387.39,572.89l14.86-16.12,16.12,14.86-14.86,16.12-16.12-14.86ZM380.91,537.1l16.12,14.86-14.86,16.12-16.12-14.86,14.86-16.12ZM361.23,558.44l16.12,14.86-14.86,16.12-16.12-14.86,14.86-16.12ZM341.54,579.79l16.12,14.86-14.86,16.11-16.12-14.86,14.86-16.11ZM321.87,601.13l16.12,14.86-14.86,16.12-16.12-14.86,14.86-16.12ZM302.19,622.47l16.12,14.86-14.86,16.12-16.12-14.86,14.86-16.12ZM267.65,659.93l14.86-16.11,16.12,14.86-14.86,16.12-16.12-14.86ZM269.31,700.96l14.86-16.12,16.12,14.86-14.86,16.12-16.12-14.86ZM290.65,720.64l14.86-16.12,16.12,14.86-14.86,16.12-16.12-14.86ZM312,740.32l14.86-16.12,16.12,14.86-14.86,16.12-16.12-14.86ZM333.35,760l14.86-16.12,16.12,14.86-14.86,16.12-16.12-14.86ZM354.69,779.68l14.86-16.12,16.12,14.86-14.86,16.12-16.12-14.86ZM376.03,799.36l14.86-16.12,16.12,14.86-14.86,16.12-16.12-14.86ZM428.35,817.78l-14.86,16.12-16.11-14.86,14.86-16.12,16.11,14.86ZM426.69,776.76l-14.86,16.12-16.12-14.86,14.86-16.12,16.12,14.86ZM425.02,735.73l-14.86,16.12-16.12-14.86,14.86-16.12,16.12,14.86ZM408.5,710.83l-16.12-14.86,14.86-16.12,16.12,14.86-14.86,16.12ZM428.18,689.48l-16.12-14.86,14.86-16.11,16.12,14.86-14.86,16.12ZM462.72,652.02l-14.86,16.12-16.12-14.86,14.86-16.12,16.12,14.86ZM461.06,611l-14.86,16.12-16.12-14.86,14.86-16.12,16.12,14.86ZM439.71,591.32l-14.86,16.12-16.12-14.86,14.86-16.12,16.12,14.86ZM423.19,566.41l-16.12-14.86,14.86-16.11,16.12,14.86-14.86,16.11ZM457.73,528.95l-14.86,16.12-16.12-14.86,14.86-16.12,16.12,14.86Z"/>
      <path id="path219" class="cls-2" d="M707.83,1001.13l10.61-18.95-19.86.67,9.25,18.28Z"/>
      <path id="path220" class="cls-2" d="M642.62,947.29l-2.41-21.89-22.34,5.62,24.75,16.27Z"/>
      <path id="path222" class="cls-2" d="M752.85,1003.53l21.3-8.57-4.02-12.44-17.28,21.01Z"/>
      <path id="path223" class="cls-2" d="M675.93,948.08l3.64-23.47-19.8.56,16.16,22.91Z"/>
      <path id="path224" class="cls-2" d="M717.88,1034.24l.56-22.43-20.76,7.7,20.2,14.72Z"/>
    </g>
  </g>
</svg>